<svg width="40" height="40" viewBox="0 0 40 40" fill="none" xmlns="http://www.w3.org/2000/svg">
<g id="Media / Icon/Filled/menu-alt-1">
<g id="Icon">
<path fill-rule="evenodd" clip-rule="evenodd" d="M6 10C6 8.89543 6.89543 8 8 8H32C33.1046 8 34 8.89543 34 10C34 11.1046 33.1046 12 32 12H8C6.89543 12 6 11.1046 6 10Z" fill="#171717"/>
<path fill-rule="evenodd" clip-rule="evenodd" d="M6 20C6 18.8954 6.89543 18 8 18H20C21.1046 18 22 18.8954 22 20C22 21.1046 21.1046 22 20 22H8C6.89543 22 6 21.1046 6 20Z" fill="#171717"/>
<path fill-rule="evenodd" clip-rule="evenodd" d="M6 30C6 28.8954 6.89543 28 8 28H32C33.1046 28 34 28.8954 34 30C34 31.1046 33.1046 32 32 32H8C6.89543 32 6 31.1046 6 30Z" fill="#171717"/>
</g>
</g>
</svg>
